<svg id="svg" version="1.1" xmlns="http://www.w3.org/2000/svg" xmlns:xlink="http://www.w3.org/1999/xlink" width="400" height="400" viewBox="0, 0, 400,400">
<g id="svgg">
<path id="path0" d="M0.000 200.000 L 0.000 400.000 200.000 400.000 L 400.000 400.000 400.000 200.000 L 400.000 0.000 200.000 0.000 L 0.000 0.000 0.000 200.000 M128.606 52.100 C 128.728 52.595,128.776 56.330,128.714 60.400 L 128.600 67.800 92.200 68.016 C 72.180 68.135,55.388 68.383,54.884 68.567 C 53.608 69.033,52.800 70.805,52.800 73.137 C 52.800 75.608,52.817 75.602,46.667 75.594 C 40.225 75.586,40.725 76.242,40.685 67.751 C 40.646 59.277,41.181 57.225,44.148 54.490 C 47.625 51.285,47.334 51.305,90.892 51.249 L 128.385 51.200 128.606 52.100 M81.400 81.456 C 113.296 88.277,115.273 133.671,84.000 141.153 C 78.508 142.467,69.866 142.906,68.880 141.920 C 68.518 141.558,68.400 136.036,68.400 119.520 L 68.400 97.600 67.464 97.600 C 65.849 97.600,60.561 99.104,58.538 100.139 C 48.176 105.441,49.742 120.287,61.100 124.424 L 62.400 124.897 62.400 132.861 C 62.400 142.571,62.339 142.617,54.600 138.726 C 37.611 130.186,34.312 102.262,48.700 88.791 C 56.153 81.813,69.289 78.866,81.400 81.456 M79.600 111.413 C 79.600 126.123,79.370 125.218,82.895 124.384 C 92.883 122.021,97.219 113.492,92.570 105.355 C 90.560 101.836,84.829 98.423,80.900 98.406 L 79.600 98.400 79.600 111.413 M64.491 150.431 C 74.381 153.762,79.250 163.457,79.942 181.200 L 80.200 187.800 82.944 187.919 C 89.114 188.187,92.475 186.356,93.757 182.027 C 95.727 175.373,92.496 169.615,86.200 168.563 C 83.548 168.120,83.600 168.297,83.600 159.751 L 83.600 152.000 85.534 152.000 C 87.848 152.000,91.837 153.238,94.622 154.820 C 110.713 163.964,110.145 197.246,93.800 203.005 C 90.069 204.320,88.217 204.449,68.000 204.808 C 56.890 205.005,46.540 205.325,45.000 205.519 C 41.048 206.016,41.200 206.324,41.200 197.827 C 41.200 189.085,41.099 189.310,45.200 188.954 C 49.479 188.582,49.629 188.344,46.513 186.876 C 37.392 182.582,37.429 160.820,46.569 153.420 C 51.183 149.685,58.603 148.447,64.491 150.431 M57.474 167.183 C 53.844 167.895,51.895 170.980,51.895 176.010 C 51.895 183.872,57.313 188.324,66.400 187.930 L 69.400 187.800 69.531 184.200 C 69.966 172.302,65.256 165.656,57.474 167.183 M60.800 222.746 L 60.800 231.093 58.500 231.935 C 48.176 235.713,48.677 253.310,59.053 251.364 C 61.759 250.856,64.436 247.203,65.988 241.899 C 71.459 223.205,74.864 218.574,84.203 217.123 C 94.308 215.552,102.818 222.163,105.376 233.572 C 109.035 249.890,102.293 263.540,89.031 266.665 C 85.876 267.408,85.967 267.658,86.091 258.595 L 86.200 250.647 88.600 249.733 C 97.590 246.309,96.903 233.073,87.789 234.100 C 84.008 234.526,82.104 237.459,79.343 247.110 C 75.598 260.198,71.409 265.898,64.136 267.803 C 48.761 271.832,38.148 258.907,39.993 238.400 C 41.116 225.919,46.558 218.244,56.339 215.349 C 61.254 213.894,60.800 213.141,60.800 222.746 M103.900 278.252 C 104.795 278.492,104.800 278.540,104.800 286.367 C 104.800 295.825,105.175 295.200,99.496 295.200 C 94.527 295.200,94.481 295.314,98.552 297.548 C 103.870 300.467,107.048 306.622,106.196 312.351 C 105.745 315.381,106.219 315.200,98.757 315.200 L 92.000 315.200 91.994 312.100 C 91.975 302.730,87.919 297.728,78.800 295.826 C 76.354 295.316,72.684 295.201,58.914 295.200 C 42.629 295.200,42.013 295.172,41.614 294.426 C 41.005 293.288,41.064 279.096,41.680 278.480 C 42.188 277.972,102.036 277.753,103.900 278.252 M54.510 321.441 C 60.544 324.484,61.665 333.099,56.606 337.541 C 48.503 344.656,36.575 336.057,40.817 326.160 C 42.931 321.229,49.561 318.944,54.510 321.441 " stroke="none" fill="#64d334" fill-rule="evenodd"></path><path id="path1" d="M50.200 52.210 C 49.980 52.291,49.025 52.556,48.077 52.800 C 42.821 54.152,40.441 60.138,41.186 70.134 C 41.585 75.495,41.297 75.250,47.033 75.113 L 51.800 75.000 52.057 73.000 C 52.788 67.313,49.036 67.818,91.500 67.690 L 128.000 67.580 128.000 59.790 L 128.000 52.000 89.300 52.032 C 68.015 52.049,50.420 52.129,50.200 52.210 M69.000 81.234 C 49.785 82.924,38.548 96.110,40.454 114.732 C 41.768 127.578,47.625 135.684,58.570 139.803 C 61.852 141.039,61.645 141.555,61.509 132.466 L 61.400 125.158 59.040 124.199 C 53.982 122.144,51.214 117.664,51.204 111.515 C 51.192 103.805,56.628 98.529,65.759 97.388 C 66.986 97.235,68.126 97.085,68.294 97.055 C 68.462 97.025,68.690 106.990,68.800 119.200 L 69.000 141.400 74.200 141.518 C 97.277 142.039,111.354 122.811,103.815 101.064 C 101.070 93.146,93.252 85.527,85.400 83.119 C 82.010 82.079,79.907 81.650,77.000 81.406 C 75.240 81.258,73.530 81.087,73.200 81.027 C 72.870 80.967,70.980 81.060,69.000 81.234 M83.122 98.174 C 90.803 100.219,94.570 104.767,94.574 112.000 C 94.579 119.172,91.017 123.064,82.683 124.996 C 78.945 125.862,79.200 126.857,79.200 111.376 L 79.200 97.600 80.100 97.605 C 80.595 97.607,81.955 97.864,83.122 98.174 M54.108 150.395 C 44.772 152.387,39.216 161.748,40.453 173.400 C 40.988 178.441,43.549 185.600,44.816 185.600 C 45.427 185.600,50.400 188.089,50.400 188.395 C 50.400 188.780,46.290 189.600,44.362 189.600 C 41.712 189.600,41.600 189.944,41.600 198.080 L 41.600 205.303 44.300 205.048 C 52.552 204.268,59.710 204.006,73.000 203.997 C 88.972 203.987,91.439 203.723,95.653 201.573 C 99.715 199.501,103.286 194.689,104.427 189.749 C 104.675 188.677,105.040 187.149,105.239 186.354 C 105.702 184.500,105.710 174.084,105.250 172.560 C 105.057 171.922,104.675 170.410,104.401 169.200 C 102.443 160.557,94.196 153.078,86.200 152.696 L 84.200 152.600 84.091 159.509 C 83.968 167.266,84.142 167.996,86.114 168.007 C 95.067 168.053,98.210 183.396,90.118 187.555 C 88.684 188.293,80.908 188.987,80.245 188.438 C 79.837 188.098,79.617 186.263,79.412 181.488 C 78.430 158.582,69.155 147.184,54.108 150.395 M63.422 167.154 C 68.424 169.426,72.767 184.384,69.550 188.260 C 67.982 190.150,57.334 187.757,54.764 184.937 C 46.693 176.079,53.281 162.548,63.422 167.154 M56.480 215.820 C 45.891 219.150,40.349 228.269,40.327 242.400 C 40.301 260.262,50.195 270.974,63.460 267.442 C 71.318 265.350,74.835 260.463,79.179 245.600 C 81.941 236.150,83.961 233.600,88.688 233.600 C 97.303 233.600,98.035 246.775,89.597 249.948 C 85.992 251.303,86.369 250.244,86.491 258.695 C 86.618 267.459,86.389 267.127,91.157 265.469 C 109.987 258.920,111.080 225.284,92.685 218.459 C 81.751 214.402,72.669 220.887,68.396 235.800 C 64.587 249.095,62.593 252.000,57.275 252.000 C 47.235 252.000,48.624 233.940,58.876 231.179 L 60.400 230.769 60.400 222.985 L 60.400 215.200 59.300 215.240 C 58.695 215.261,57.426 215.522,56.480 215.820 M41.794 279.700 C 41.672 280.195,41.623 283.660,41.686 287.400 L 41.800 294.200 59.000 294.417 C 80.317 294.686,83.297 295.199,87.939 299.393 C 90.815 301.990,92.799 307.423,92.800 312.700 L 92.800 314.800 98.957 314.800 C 106.024 314.800,105.600 315.054,105.600 310.829 C 105.600 307.672,104.604 304.314,102.966 301.951 C 101.658 300.064,101.334 299.808,97.025 297.270 C 92.448 294.574,92.554 294.400,98.767 294.400 L 104.000 294.400 104.000 286.600 L 104.000 278.800 73.008 278.800 L 42.015 278.800 41.794 279.700 " stroke="none" fill="#fafbf9" fill-rule="evenodd"></path><path id="path2" d="M51.600 51.560 C 50.610 51.692,67.440 51.800,89.000 51.800 L 128.200 51.800 128.200 59.862 C 128.200 64.296,128.335 67.841,128.500 67.738 C 128.856 67.518,128.909 52.750,128.557 51.833 C 128.309 51.185,56.325 50.930,51.600 51.560 M44.375 54.270 C 42.818 55.677,41.346 57.880,41.717 58.250 C 41.813 58.347,42.121 57.874,42.400 57.199 C 42.680 56.524,43.719 55.259,44.711 54.386 C 45.702 53.514,46.398 52.800,46.257 52.800 C 46.117 52.800,45.270 53.461,44.375 54.270 M41.000 60.000 C 40.848 60.691,40.807 61.341,40.909 61.442 C 41.011 61.544,41.209 61.053,41.350 60.350 C 41.683 58.683,41.360 58.360,41.000 60.000 M40.534 66.400 C 40.534 68.050,40.605 68.725,40.691 67.900 C 40.778 67.075,40.778 65.725,40.691 64.900 C 40.605 64.075,40.534 64.750,40.534 66.400 M54.800 68.395 C 54.391 68.655,54.710 68.699,55.800 68.532 C 57.777 68.229,58.114 67.998,56.567 68.006 C 55.925 68.009,55.130 68.184,54.800 68.395 M52.514 73.400 C 52.517 74.500,52.595 74.903,52.687 74.295 C 52.779 73.686,52.777 72.786,52.682 72.295 C 52.587 71.803,52.511 72.300,52.514 73.400 M40.840 74.057 C 40.785 75.500,41.273 75.613,47.133 75.518 L 52.200 75.436 46.817 75.218 C 41.495 75.002,41.431 74.989,41.157 74.000 L 40.880 73.000 40.840 74.057 M71.905 80.683 C 72.402 80.779,73.122 80.775,73.505 80.675 C 73.887 80.575,73.480 80.496,72.600 80.501 C 71.720 80.505,71.407 80.587,71.905 80.683 M64.600 81.200 C 63.530 81.472,63.508 81.505,64.400 81.505 C 64.950 81.505,65.940 81.368,66.600 81.200 C 67.670 80.928,67.692 80.895,66.800 80.895 C 66.250 80.895,65.260 81.032,64.600 81.200 M77.233 80.949 C 77.325 81.031,78.300 81.201,79.400 81.328 C 80.749 81.484,81.074 81.449,80.400 81.220 C 79.401 80.880,76.918 80.668,77.233 80.949 M61.000 82.000 C 60.496 82.217,60.422 82.344,60.800 82.344 C 61.130 82.344,61.760 82.189,62.200 82.000 C 62.704 81.783,62.778 81.656,62.400 81.656 C 62.070 81.656,61.440 81.811,61.000 82.000 M82.600 82.000 C 83.040 82.189,83.670 82.344,84.000 82.344 C 84.378 82.344,84.304 82.217,83.800 82.000 C 83.360 81.811,82.730 81.656,82.400 81.656 C 82.022 81.656,82.096 81.783,82.600 82.000 M54.300 84.629 C 52.805 85.440,52.896 85.778,54.400 85.000 C 55.060 84.659,55.600 84.294,55.600 84.190 C 55.600 83.932,55.557 83.947,54.300 84.629 M93.200 86.633 C 93.970 87.242,96.035 89.194,97.789 90.971 C 99.544 92.747,100.413 93.480,99.722 92.600 C 98.111 90.549,95.438 88.021,93.400 86.622 L 91.800 85.524 93.200 86.633 M47.800 89.600 C 46.494 90.920,45.599 91.980,45.813 91.955 C 46.195 91.910,50.691 87.200,50.351 87.200 C 50.254 87.200,49.106 88.280,47.800 89.600 M102.682 97.789 C 103.273 98.993,103.823 99.911,103.905 99.829 C 104.084 99.649,102.067 95.600,101.798 95.600 C 101.694 95.600,102.092 96.585,102.682 97.789 M68.307 119.287 C 68.381 134.655,68.547 141.496,68.856 141.867 C 69.347 142.460,76.528 142.589,79.400 142.058 C 80.390 141.875,78.714 141.769,75.000 141.781 L 69.000 141.800 68.897 119.817 C 68.840 107.726,68.660 97.700,68.497 97.536 C 68.333 97.373,68.248 107.161,68.307 119.287 M63.600 98.006 C 63.178 98.282,63.415 98.323,64.400 98.142 C 66.125 97.825,66.451 97.598,65.167 97.606 C 64.635 97.609,63.930 97.789,63.600 98.006 M79.295 111.495 C 79.397 124.642,79.421 124.992,80.200 125.109 C 80.931 125.219,80.940 125.192,80.300 124.795 C 79.657 124.395,79.600 123.311,79.600 111.407 L 79.600 98.453 80.700 98.287 C 81.720 98.132,81.705 98.115,80.495 98.060 L 79.189 98.000 79.295 111.495 M83.200 98.800 C 83.530 99.013,84.070 99.188,84.400 99.188 C 84.933 99.188,84.933 99.145,84.400 98.800 C 84.070 98.587,83.530 98.412,83.200 98.412 C 82.667 98.412,82.667 98.455,83.200 98.800 M58.300 99.829 C 56.749 100.670,56.925 100.961,58.500 100.159 C 60.008 99.393,60.275 99.194,59.767 99.216 C 59.565 99.225,58.905 99.501,58.300 99.829 M85.233 99.349 C 85.645 99.717,88.000 100.800,88.000 100.621 C 88.000 100.390,85.782 99.200,85.353 99.200 C 85.196 99.200,85.142 99.267,85.233 99.349 M55.599 101.700 C 55.049 102.195,54.338 102.960,54.018 103.400 C 53.699 103.840,54.194 103.488,55.119 102.619 C 56.655 101.174,56.981 100.799,56.700 100.800 C 56.645 100.801,56.150 101.206,55.599 101.700 M89.484 101.821 C 90.190 102.377,91.239 103.410,91.816 104.116 C 92.393 104.822,92.680 105.024,92.453 104.566 C 92.011 103.668,88.992 100.797,88.499 100.804 C 88.334 100.807,88.778 101.264,89.484 101.821 M104.868 103.400 C 104.862 103.840,105.011 104.560,105.200 105.000 C 105.638 106.019,105.638 104.968,105.200 103.600 C 104.943 102.796,104.877 102.757,104.868 103.400 M40.222 104.622 C 40.072 105.425,40.028 106.162,40.126 106.260 C 40.224 106.357,40.427 105.781,40.578 104.978 C 40.728 104.175,40.772 103.438,40.674 103.340 C 40.576 103.243,40.373 103.819,40.222 104.622 M105.800 112.600 C 105.800 115.875,105.914 118.025,106.053 117.377 C 106.192 116.730,106.305 114.580,106.305 112.600 C 106.305 110.620,106.192 108.470,106.053 107.823 C 105.914 107.175,105.800 109.325,105.800 112.600 M93.844 108.600 C 94.173 110.071,94.402 110.390,94.394 109.367 C 94.391 108.945,94.205 108.330,93.982 108.000 C 93.685 107.562,93.648 107.724,93.844 108.600 M51.466 110.300 C 51.336 111.345,51.372 112.830,51.547 113.600 C 51.793 114.687,51.868 114.263,51.880 111.700 C 51.897 107.926,51.802 107.605,51.466 110.300 M39.720 110.800 C 39.720 112.010,39.795 112.505,39.887 111.900 C 39.978 111.295,39.978 110.305,39.887 109.700 C 39.795 109.095,39.720 109.590,39.720 110.800 M94.054 114.267 C 94.025 114.744,93.896 115.464,93.770 115.867 C 93.552 116.561,93.564 116.562,93.996 115.888 C 94.247 115.497,94.375 114.777,94.281 114.288 C 94.109 113.401,94.109 113.401,94.054 114.267 M40.080 117.000 C 40.080 117.440,40.224 118.250,40.400 118.800 C 40.654 119.592,40.720 119.633,40.720 119.000 C 40.720 118.560,40.576 117.750,40.400 117.200 C 40.146 116.408,40.080 116.367,40.080 117.000 M52.800 118.308 C 52.800 118.912,56.784 123.201,57.340 123.196 C 57.593 123.193,57.196 122.715,56.457 122.133 C 55.719 121.551,54.594 120.356,53.957 119.478 C 53.321 118.599,52.800 118.072,52.800 118.308 M91.225 120.169 L 89.850 121.800 91.405 120.313 C 92.260 119.496,92.879 118.762,92.780 118.683 C 92.681 118.603,91.981 119.272,91.225 120.169 M105.029 120.629 C 104.881 121.215,104.838 121.772,104.932 121.866 C 105.027 121.960,105.224 121.558,105.371 120.971 C 105.519 120.385,105.562 119.828,105.468 119.734 C 105.373 119.640,105.176 120.042,105.029 120.629 M40.856 120.800 C 40.856 121.130,41.011 121.760,41.200 122.200 C 41.417 122.704,41.544 122.778,41.544 122.400 C 41.544 122.070,41.389 121.440,41.200 121.000 C 40.983 120.496,40.856 120.422,40.856 120.800 M82.800 124.400 C 81.976 124.664,81.941 124.726,82.600 124.754 C 83.040 124.773,83.670 124.613,84.000 124.400 C 84.701 123.947,84.214 123.947,82.800 124.400 M62.091 132.672 C 62.001 140.692,61.994 140.745,61.100 140.918 L 60.200 141.091 61.113 141.146 C 62.405 141.223,62.431 141.034,62.300 132.388 L 62.182 124.600 62.091 132.672 M100.987 129.700 C 100.371 130.635,98.772 132.473,97.434 133.785 C 95.566 135.615,95.396 135.863,96.702 134.850 C 98.780 133.238,103.060 128.000,102.299 128.000 C 102.193 128.000,101.603 128.765,100.987 129.700 M46.400 132.199 C 48.665 134.880,54.000 139.109,54.000 138.224 C 54.000 138.112,53.451 137.736,52.779 137.389 C 52.107 137.042,50.172 135.466,48.479 133.887 C 46.786 132.307,45.850 131.548,46.400 132.199 M85.600 140.400 C 85.067 140.745,85.067 140.788,85.600 140.788 C 85.930 140.788,86.470 140.613,86.800 140.400 C 87.333 140.055,87.333 140.012,86.800 140.012 C 86.470 140.012,85.930 140.187,85.600 140.400 M82.600 141.200 C 82.096 141.417,82.022 141.544,82.400 141.544 C 82.730 141.544,83.360 141.389,83.800 141.200 C 84.304 140.983,84.378 140.856,84.000 140.856 C 83.670 140.856,83.040 141.011,82.600 141.200 M53.400 150.000 C 52.381 150.438,53.432 150.438,54.800 150.000 C 55.604 149.743,55.643 149.677,55.000 149.668 C 54.560 149.662,53.840 149.811,53.400 150.000 M61.600 150.000 C 62.150 150.176,62.960 150.320,63.400 150.320 C 64.033 150.320,63.992 150.254,63.200 150.000 C 62.650 149.824,61.840 149.680,61.400 149.680 C 60.767 149.680,60.808 149.746,61.600 150.000 M48.156 152.242 C 45.429 154.068,41.592 158.697,41.604 160.146 C 41.606 160.396,42.085 159.790,42.669 158.800 C 44.443 155.793,45.949 154.090,48.023 152.747 C 49.814 151.586,50.271 151.200,49.856 151.200 C 49.777 151.200,49.012 151.669,48.156 152.242 M83.768 159.800 C 83.768 164.200,83.826 166.055,83.898 163.921 C 83.970 161.788,83.970 158.188,83.899 155.921 C 83.827 153.655,83.768 155.400,83.768 159.800 M87.200 152.400 C 88.568 152.838,89.619 152.838,88.600 152.400 C 88.160 152.211,87.440 152.062,87.000 152.068 C 86.357 152.077,86.396 152.143,87.200 152.400 M70.400 153.707 C 70.400 154.072,72.453 156.080,72.638 155.895 C 72.723 155.811,72.254 155.226,71.596 154.596 C 70.938 153.966,70.400 153.566,70.400 153.707 M95.400 155.457 C 97.437 157.264,98.187 157.791,97.402 156.863 C 96.966 156.348,96.247 155.741,95.804 155.514 C 95.362 155.287,95.180 155.262,95.400 155.457 M73.785 157.900 C 74.402 158.835,74.983 159.600,75.076 159.600 C 75.364 159.600,73.833 157.166,73.232 156.669 C 72.920 156.411,73.168 156.965,73.785 157.900 M100.588 160.600 C 102.477 163.117,102.721 163.341,101.762 161.676 C 101.343 160.948,100.570 159.958,100.044 159.476 C 99.481 158.960,99.705 159.422,100.588 160.600 M40.250 164.450 C 39.917 166.117,40.240 166.440,40.600 164.800 C 40.752 164.109,40.793 163.459,40.691 163.358 C 40.589 163.256,40.391 163.747,40.250 164.450 M58.000 166.766 C 57.337 166.955,57.869 167.054,59.580 167.059 C 61.174 167.064,61.862 166.950,61.380 166.761 C 60.424 166.387,59.318 166.389,58.000 166.766 M53.601 168.998 C 53.086 169.548,52.739 170.064,52.832 170.146 C 52.924 170.228,53.419 169.778,53.930 169.147 C 55.076 167.735,54.874 167.644,53.601 168.998 M65.615 169.432 C 66.377 170.329,67.228 171.409,67.506 171.832 C 67.784 172.254,67.755 172.060,67.441 171.400 C 67.128 170.740,66.277 169.660,65.550 169.000 L 64.229 167.800 65.615 169.432 M84.433 168.147 C 84.525 168.228,85.320 168.404,86.200 168.538 C 87.315 168.707,87.558 168.671,87.000 168.419 C 86.232 168.071,84.090 167.844,84.433 168.147 M39.714 170.200 C 39.717 171.300,39.795 171.703,39.887 171.095 C 39.979 170.486,39.977 169.586,39.882 169.095 C 39.787 168.603,39.711 169.100,39.714 170.200 M78.468 169.600 C 78.462 170.150,78.611 170.960,78.800 171.400 L 79.144 172.200 79.132 171.400 C 79.126 170.960,78.976 170.150,78.800 169.600 L 78.480 168.600 78.468 169.600 M104.868 169.800 C 104.862 170.240,105.011 170.960,105.200 171.400 C 105.638 172.419,105.638 171.368,105.200 170.000 C 104.943 169.196,104.877 169.157,104.868 169.800 M91.484 170.800 C 92.324 172.153,93.600 173.683,93.600 173.339 C 93.600 173.136,93.040 172.347,92.356 171.585 C 91.671 170.823,91.279 170.470,91.484 170.800 M105.800 179.400 C 105.800 185.723,105.825 185.952,106.152 182.665 C 106.354 180.633,106.354 177.743,106.152 175.865 C 105.835 172.927,105.800 173.281,105.800 179.400 M51.472 174.700 C 51.345 175.525,51.380 176.830,51.550 177.600 C 51.797 178.721,51.861 178.422,51.870 176.100 C 51.884 172.825,51.803 172.542,51.472 174.700 M79.504 177.400 C 79.618 179.600,79.776 181.475,79.856 181.567 C 80.136 181.890,79.949 176.578,79.625 175.000 C 79.412 173.961,79.369 174.802,79.504 177.400 M93.844 175.000 C 94.173 176.471,94.402 176.790,94.394 175.767 C 94.391 175.345,94.205 174.730,93.982 174.400 C 93.685 173.962,93.648 174.124,93.844 175.000 M40.080 175.400 C 40.080 175.840,40.224 176.650,40.400 177.200 C 40.654 177.992,40.720 178.033,40.720 177.400 C 40.720 176.960,40.576 176.150,40.400 175.600 C 40.146 174.808,40.080 174.767,40.080 175.400 M69.062 177.000 C 69.196 177.880,69.372 178.675,69.453 178.767 C 69.756 179.110,69.529 176.968,69.181 176.200 C 68.929 175.642,68.893 175.885,69.062 177.000 M94.046 180.867 C 94.021 181.234,93.896 181.864,93.770 182.267 C 93.552 182.962,93.563 182.963,93.997 182.287 C 94.248 181.896,94.373 181.266,94.273 180.887 C 94.111 180.268,94.088 180.266,94.046 180.867 M41.600 181.353 C 41.600 181.782,42.790 184.000,43.021 184.000 C 43.131 184.000,42.923 183.415,42.559 182.700 C 41.817 181.240,41.600 180.936,41.600 181.353 M52.800 181.860 C 52.800 182.100,53.475 183.006,54.300 183.872 C 55.125 184.738,55.423 184.987,54.961 184.424 C 54.500 183.861,53.825 182.955,53.461 182.411 C 53.098 181.867,52.800 181.619,52.800 181.860 M69.728 184.000 C 69.728 185.430,69.801 186.015,69.889 185.300 C 69.978 184.585,69.978 183.415,69.889 182.700 C 69.801 181.985,69.728 182.570,69.728 184.000 M93.003 183.991 C 92.865 184.426,92.088 185.344,91.276 186.032 C 90.464 186.720,90.186 187.088,90.657 186.850 C 91.606 186.372,93.600 184.148,93.600 183.569 C 93.600 182.930,93.264 183.167,93.003 183.991 M60.000 187.582 C 60.330 187.805,60.945 187.991,61.367 187.994 C 62.390 188.002,62.071 187.773,60.600 187.444 C 59.724 187.248,59.562 187.285,60.000 187.582 M87.800 187.600 C 86.693 187.882,86.677 187.909,87.600 187.947 C 88.150 187.969,88.870 187.813,89.200 187.600 C 89.881 187.160,89.529 187.160,87.800 187.600 M105.000 188.400 C 104.848 189.091,104.807 189.741,104.909 189.842 C 105.011 189.944,105.209 189.453,105.350 188.750 C 105.683 187.083,105.360 186.760,105.000 188.400 M66.800 188.000 L 64.200 188.262 66.676 188.331 C 68.038 188.369,69.264 188.220,69.400 188.000 C 69.536 187.780,69.592 187.631,69.524 187.669 C 69.456 187.707,68.230 187.856,66.800 188.000 M80.366 188.126 C 80.547 188.307,81.393 188.393,82.247 188.319 L 83.800 188.183 81.919 187.990 C 80.884 187.884,80.185 187.945,80.366 188.126 M48.800 188.400 C 48.315 188.714,48.372 188.789,49.100 188.794 C 49.595 188.797,50.000 188.620,50.000 188.400 C 50.000 187.899,49.576 187.899,48.800 188.400 M43.200 189.200 L 41.800 189.495 43.200 189.500 C 43.970 189.503,45.140 189.368,45.800 189.200 L 47.000 188.895 45.800 188.900 C 45.140 188.903,43.970 189.038,43.200 189.200 M41.367 197.800 C 41.367 201.980,41.426 203.636,41.498 201.479 C 41.571 199.323,41.570 195.903,41.498 193.879 C 41.425 191.856,41.366 193.620,41.367 197.800 M101.026 197.500 C 100.162 198.605,100.093 198.790,100.763 198.204 C 101.565 197.504,102.623 196.000,102.314 196.000 C 102.251 196.000,101.672 196.675,101.026 197.500 M90.800 203.600 C 89.976 203.864,89.941 203.926,90.600 203.954 C 91.040 203.973,91.670 203.813,92.000 203.600 C 92.701 203.147,92.214 203.147,90.800 203.600 M69.800 204.400 L 55.800 204.616 69.600 204.658 C 77.190 204.682,84.660 204.571,86.200 204.413 L 89.000 204.126 86.400 204.155 C 84.970 204.171,77.500 204.281,69.800 204.400 M46.000 205.200 C 44.001 205.621,46.052 205.638,48.400 205.220 C 50.024 204.932,50.063 204.900,48.800 204.903 C 48.030 204.904,46.770 205.038,46.000 205.200 M58.400 214.799 C 57.596 215.056,57.732 215.107,59.098 215.059 C 60.032 215.027,60.797 214.865,60.798 214.700 C 60.800 214.330,59.730 214.374,58.400 214.799 M51.243 217.500 C 48.633 219.042,44.861 222.748,43.786 224.827 C 42.843 226.650,43.381 226.211,44.801 223.999 C 46.433 221.455,49.240 218.929,52.246 217.298 C 53.541 216.596,54.416 216.017,54.191 216.011 C 53.966 216.005,52.639 216.675,51.243 217.500 M83.600 217.158 C 82.830 217.296,84.259 217.408,86.776 217.405 C 89.293 217.402,90.823 217.286,90.176 217.147 C 88.680 216.826,85.412 216.831,83.600 217.158 M80.400 218.000 C 79.867 218.345,79.867 218.388,80.400 218.388 C 80.730 218.388,81.270 218.213,81.600 218.000 C 82.133 217.655,82.133 217.612,81.600 217.612 C 81.270 217.612,80.730 217.787,80.400 218.000 M95.822 219.639 C 98.407 221.259,100.162 222.960,101.664 225.300 C 103.056 227.469,103.534 227.806,102.567 225.937 C 101.224 223.339,95.769 218.400,94.243 218.400 C 94.023 218.400,94.734 218.958,95.822 219.639 M74.425 222.248 C 72.597 224.249,70.877 226.800,71.357 226.800 C 71.455 226.800,71.949 226.125,72.455 225.300 C 72.961 224.475,74.170 222.945,75.142 221.900 C 76.114 220.855,76.813 220.000,76.695 220.000 C 76.577 220.000,75.556 221.012,74.425 222.248 M104.868 232.600 C 104.862 233.040,105.011 233.760,105.200 234.200 C 105.638 235.219,105.638 234.168,105.200 232.800 C 104.943 231.996,104.877 231.957,104.868 232.600 M40.449 234.200 C 40.416 234.640,40.296 235.450,40.183 236.000 L 39.977 237.000 40.406 236.019 C 40.642 235.479,40.761 234.669,40.672 234.219 C 40.513 233.421,40.507 233.421,40.449 234.200 M86.538 233.906 C 86.284 234.068,87.212 234.200,88.600 234.200 C 89.988 234.200,90.916 234.068,90.662 233.906 C 90.408 233.744,89.480 233.612,88.600 233.612 C 87.720 233.612,86.792 233.744,86.538 233.906 M92.934 235.707 C 93.630 236.426,94.277 236.964,94.371 236.903 C 94.599 236.754,92.331 234.400,91.959 234.400 C 91.799 234.400,92.238 234.988,92.934 235.707 M105.797 241.753 C 105.799 245.344,105.920 247.430,106.077 246.553 C 106.423 244.613,106.416 240.039,106.062 237.400 C 105.900 236.186,105.795 237.896,105.797 241.753 M82.471 237.559 C 81.992 238.411,81.602 239.264,81.605 239.454 C 81.607 239.645,82.062 239.009,82.614 238.043 C 83.167 237.076,83.557 236.223,83.481 236.147 C 83.404 236.071,82.950 236.706,82.471 237.559 M94.658 238.800 C 94.975 240.525,95.202 240.851,95.194 239.567 C 95.191 239.035,95.011 238.330,94.794 238.000 C 94.518 237.578,94.477 237.815,94.658 238.800 M66.600 239.600 C 66.450 240.073,66.417 240.550,66.527 240.660 C 66.637 240.770,66.850 240.473,67.000 240.000 C 67.150 239.527,67.183 239.050,67.073 238.940 C 66.963 238.830,66.750 239.127,66.600 239.600 M50.928 242.800 C 50.928 244.230,51.001 244.815,51.089 244.100 C 51.178 243.385,51.178 242.215,51.089 241.500 C 51.001 240.785,50.928 241.370,50.928 242.800 M39.714 242.600 C 39.717 243.700,39.795 244.103,39.887 243.495 C 39.979 242.886,39.977 241.986,39.882 241.495 C 39.787 241.003,39.711 241.500,39.714 242.600 M94.849 242.200 C 94.816 242.640,94.696 243.450,94.583 244.000 L 94.377 245.000 94.806 244.019 C 95.042 243.479,95.161 242.669,95.072 242.219 C 94.913 241.421,94.907 241.421,94.849 242.200 M92.607 247.113 C 91.731 248.151,91.371 248.730,91.807 248.400 C 92.723 247.707,93.442 246.895,94.021 245.900 C 94.669 244.787,94.314 245.091,92.607 247.113 M63.029 248.300 C 62.182 249.565,61.839 250.289,62.266 249.909 C 62.983 249.271,65.029 246.000,64.710 246.000 C 64.633 246.000,63.877 247.035,63.029 248.300 M78.629 248.229 C 78.481 248.815,78.438 249.372,78.532 249.466 C 78.627 249.560,78.824 249.158,78.971 248.571 C 79.119 247.985,79.162 247.428,79.068 247.334 C 78.973 247.240,78.776 247.642,78.629 248.229 M40.068 248.600 C 40.074 249.040,40.224 249.850,40.400 250.400 L 40.720 251.400 40.732 250.400 C 40.738 249.850,40.589 249.040,40.400 248.600 L 40.056 247.800 40.068 248.600 M52.486 249.171 C 52.801 249.705,53.495 250.402,54.029 250.720 L 55.000 251.298 54.112 250.549 C 53.623 250.137,52.929 249.440,52.568 249.000 C 51.943 248.237,51.939 248.245,52.486 249.171 M105.000 250.000 C 104.848 250.691,104.807 251.341,104.909 251.442 C 105.011 251.544,105.209 251.053,105.350 250.350 C 105.683 248.683,105.360 248.360,105.000 250.000 M77.829 251.029 C 77.681 251.615,77.638 252.172,77.732 252.266 C 77.827 252.360,78.024 251.958,78.171 251.371 C 78.319 250.785,78.362 250.228,78.268 250.134 C 78.173 250.040,77.976 250.442,77.829 251.029 M86.267 250.667 C 86.120 250.813,86.000 254.509,86.000 258.879 C 86.000 267.499,86.007 267.523,88.200 266.801 C 89.332 266.428,89.315 266.418,87.884 266.624 L 86.368 266.842 86.484 258.621 C 86.548 254.099,86.585 250.399,86.567 250.400 C 86.548 250.400,86.413 250.520,86.267 250.667 M55.852 251.650 C 56.841 252.038,58.485 252.061,59.060 251.694 C 59.314 251.532,58.527 251.390,57.312 251.378 C 55.980 251.365,55.401 251.473,55.852 251.650 M101.785 257.700 C 101.168 258.635,100.920 259.189,101.232 258.931 C 101.833 258.434,103.364 256.000,103.076 256.000 C 102.983 256.000,102.402 256.765,101.785 257.700 M74.214 259.573 C 73.880 260.219,72.594 261.884,71.355 263.273 L 69.103 265.800 71.541 263.301 C 73.676 261.111,75.601 258.400,75.021 258.400 C 74.911 258.400,74.547 258.928,74.214 259.573 M43.750 259.900 C 45.131 262.565,50.290 267.245,51.778 267.182 C 52.010 267.173,51.570 266.828,50.800 266.417 C 48.623 265.253,46.162 262.962,44.751 260.785 C 43.339 258.605,42.859 258.181,43.750 259.900 M99.178 261.100 L 97.800 262.600 99.300 261.222 C 100.696 259.938,100.984 259.600,100.678 259.600 C 100.612 259.600,99.937 260.275,99.178 261.100 M67.000 266.427 C 66.340 266.850,65.980 267.196,66.200 267.195 C 66.420 267.195,67.140 266.837,67.800 266.400 C 68.460 265.963,68.820 265.617,68.600 265.632 C 68.380 265.647,67.660 266.004,67.000 266.427 M55.291 268.225 C 55.579 268.513,62.027 268.506,62.316 268.217 C 62.436 268.098,60.853 268.000,58.800 268.000 C 56.747 268.000,55.168 268.101,55.291 268.225 M57.300 278.300 C 65.825 278.360,79.775 278.360,88.300 278.300 C 96.825 278.240,89.850 278.190,72.800 278.190 C 55.750 278.190,48.775 278.240,57.300 278.300 M104.317 286.266 C 104.455 295.559,104.976 294.781,98.600 294.808 L 93.800 294.829 95.000 295.812 C 95.660 296.353,96.355 296.797,96.544 296.798 C 96.734 296.799,96.464 296.446,95.944 296.013 L 95.000 295.227 99.420 295.213 C 102.308 295.205,104.006 295.034,104.320 294.720 C 104.858 294.182,105.032 278.400,104.500 278.400 C 104.335 278.399,104.253 281.939,104.317 286.266 M41.367 286.400 C 41.367 290.690,41.426 292.445,41.498 290.300 C 41.570 288.155,41.570 284.645,41.498 282.500 C 41.426 280.355,41.367 282.110,41.367 286.400 M41.944 294.905 C 42.112 295.072,49.438 295.162,58.225 295.104 L 74.200 295.000 57.920 294.800 C 48.966 294.690,41.777 294.737,41.944 294.905 M77.600 295.600 C 78.968 296.038,80.019 296.038,79.000 295.600 C 78.560 295.411,77.840 295.262,77.400 295.268 C 76.757 295.277,76.796 295.343,77.600 295.600 M97.200 296.979 C 97.200 297.089,97.740 297.459,98.400 297.800 C 99.060 298.141,99.600 298.331,99.600 298.221 C 99.600 298.111,99.060 297.741,98.400 297.400 C 97.740 297.059,97.200 296.869,97.200 296.979 M86.538 299.015 C 87.558 299.794,88.844 301.095,89.396 301.908 C 89.948 302.721,90.400 303.150,90.400 302.861 C 90.400 302.198,85.833 297.600,85.174 297.600 C 84.905 297.600,85.519 298.237,86.538 299.015 M100.200 298.654 C 100.420 298.848,101.229 299.545,101.999 300.203 L 103.397 301.400 102.399 300.263 C 101.849 299.638,101.040 298.941,100.600 298.714 C 100.160 298.488,99.980 298.461,100.200 298.654 M91.458 306.800 C 91.775 308.525,92.002 308.851,91.994 307.567 C 91.991 307.035,91.811 306.330,91.594 306.000 C 91.318 305.578,91.277 305.815,91.458 306.800 M105.768 310.798 C 105.774 313.975,105.831 314.315,106.115 312.878 C 106.303 311.926,106.300 310.234,106.108 309.080 C 105.791 307.182,105.761 307.333,105.768 310.798 M92.054 312.300 C 92.025 313.895,92.135 315.200,92.300 315.200 C 92.465 315.200,92.548 314.255,92.484 313.100 C 92.291 309.579,92.112 309.246,92.054 312.300 " stroke="none" fill="#ace493" fill-rule="evenodd"></path><path id="path3" d="M90.700 51.899 L 128.000 52.004 128.000 59.800 L 128.000 67.596 92.300 67.701 L 56.600 67.806 92.400 67.803 L 128.200 67.800 128.200 59.800 L 128.200 51.800 90.800 51.797 L 53.400 51.794 90.700 51.899 M48.400 52.418 C 47.962 52.715,48.124 52.752,49.000 52.556 C 50.471 52.227,50.790 51.998,49.767 52.006 C 49.345 52.009,48.730 52.195,48.400 52.418 M43.847 55.201 C 43.051 56.082,42.400 56.928,42.400 57.081 C 42.400 57.235,42.535 57.189,42.701 56.980 C 42.867 56.771,43.622 55.925,44.380 55.100 C 45.137 54.275,45.653 53.600,45.525 53.600 C 45.397 53.600,44.642 54.321,43.847 55.201 M41.053 61.236 C 40.914 61.931,40.822 63.063,40.849 63.750 C 40.878 64.494,41.038 64.040,41.243 62.628 C 41.611 60.104,41.476 59.118,41.053 61.236 M40.957 70.703 C 41.017 73.182,41.224 74.571,41.582 74.903 C 42.014 75.305,42.054 75.289,41.788 74.824 C 41.607 74.508,41.326 72.618,41.163 70.624 L 40.867 67.000 40.957 70.703 M53.689 68.623 C 53.200 68.965,52.806 69.460,52.813 69.723 C 52.820 70.014,53.015 69.955,53.313 69.571 C 53.581 69.225,54.160 68.735,54.600 68.483 C 55.040 68.231,55.215 68.019,54.989 68.012 C 54.763 68.005,54.178 68.280,53.689 68.623 M52.208 71.859 C 51.735 74.849,51.714 75.200,52.006 75.200 C 52.291 75.200,52.826 70.744,52.576 70.459 C 52.507 70.382,52.342 71.012,52.208 71.859 M66.600 81.197 C 65.939 81.364,66.928 81.408,68.800 81.294 C 70.670 81.181,72.275 81.024,72.367 80.944 C 72.674 80.678,67.814 80.891,66.600 81.197 M73.233 80.946 C 73.325 81.026,74.840 81.192,76.600 81.313 C 78.898 81.471,79.349 81.437,78.200 81.190 C 76.610 80.848,72.915 80.667,73.233 80.946 M62.200 82.000 C 61.696 82.217,61.622 82.344,62.000 82.344 C 62.330 82.344,62.960 82.189,63.400 82.000 C 63.904 81.783,63.978 81.656,63.600 81.656 C 63.270 81.656,62.640 81.811,62.200 82.000 M81.400 82.000 C 81.840 82.189,82.470 82.344,82.800 82.344 C 83.178 82.344,83.104 82.217,82.600 82.000 C 82.160 81.811,81.530 81.656,81.200 81.656 C 80.822 81.656,80.896 81.783,81.400 82.000 M88.033 84.149 C 88.445 84.517,90.800 85.600,90.800 85.421 C 90.800 85.190,88.582 84.000,88.153 84.000 C 87.996 84.000,87.942 84.067,88.033 84.149 M92.246 86.472 C 94.019 87.811,94.362 87.917,93.016 86.711 C 92.347 86.112,91.641 85.617,91.446 85.611 C 91.251 85.605,91.611 85.992,92.246 86.472 M49.071 88.900 L 46.534 91.400 48.967 89.227 C 50.305 88.032,51.571 86.907,51.780 86.727 C 51.989 86.547,52.036 86.400,51.884 86.400 C 51.732 86.400,50.466 87.525,49.071 88.900 M96.800 90.200 C 97.995 91.410,99.063 92.400,99.173 92.400 C 99.283 92.400,98.395 91.410,97.200 90.200 C 96.005 88.990,94.937 88.000,94.827 88.000 C 94.717 88.000,95.605 88.990,96.800 90.200 M44.871 93.443 C 43.605 95.397,43.937 95.485,45.296 93.556 C 45.899 92.700,46.259 92.002,46.096 92.005 C 45.933 92.008,45.382 92.655,44.871 93.443 M100.600 94.804 C 102.466 97.583,102.783 97.868,101.584 95.691 C 101.066 94.750,100.301 93.672,99.883 93.295 C 99.466 92.917,99.789 93.596,100.600 94.804 M66.800 97.211 L 65.400 97.517 67.076 97.482 C 67.998 97.462,68.662 97.301,68.553 97.123 C 68.443 96.945,68.318 96.824,68.276 96.853 C 68.234 96.882,67.570 97.043,66.800 97.211 M79.233 97.749 C 79.325 97.831,80.300 98.001,81.400 98.128 C 82.749 98.284,83.074 98.249,82.400 98.020 C 81.401 97.680,78.918 97.468,79.233 97.749 M88.200 100.492 C 89.237 101.151,92.454 104.369,93.106 105.400 C 93.384 105.840,93.354 105.660,93.039 105.000 C 92.364 103.586,89.821 101.087,88.400 100.439 C 87.535 100.045,87.508 100.052,88.200 100.492 M41.029 102.229 C 40.881 102.815,40.838 103.372,40.932 103.466 C 41.027 103.560,41.224 103.158,41.371 102.571 C 41.519 101.985,41.562 101.428,41.468 101.334 C 41.373 101.240,41.176 101.642,41.029 102.229 M104.868 104.800 C 104.888 105.839,105.518 107.546,105.532 106.600 C 105.538 106.160,105.389 105.440,105.200 105.000 C 104.989 104.510,104.861 104.432,104.868 104.800 M40.253 106.036 C 40.114 106.731,40.023 107.953,40.051 108.750 C 40.085 109.730,40.210 109.363,40.435 107.618 C 40.789 104.883,40.677 103.913,40.253 106.036 M51.456 108.084 C 51.321 108.588,51.228 109.450,51.249 110.000 C 51.272 110.589,51.431 110.271,51.636 109.225 C 52.003 107.352,51.873 106.527,51.456 108.084 M105.746 112.600 C 105.747 114.800,105.814 115.649,105.895 114.487 C 105.976 113.324,105.976 111.524,105.893 110.487 C 105.811 109.449,105.745 110.400,105.746 112.600 M94.528 112.000 C 94.528 113.430,94.601 114.015,94.689 113.300 C 94.778 112.585,94.778 111.415,94.689 110.700 C 94.601 109.985,94.528 110.570,94.528 112.000 M40.040 114.033 C 40.062 115.225,40.220 116.650,40.392 117.200 C 40.569 117.764,40.614 116.893,40.497 115.200 C 40.251 111.647,39.983 110.964,40.040 114.033 M51.228 113.633 C 51.244 114.165,51.419 114.960,51.619 115.400 C 51.871 115.958,51.907 115.715,51.738 114.600 C 51.455 112.743,51.187 112.236,51.228 113.633 M105.050 119.250 C 104.717 120.917,105.040 121.240,105.400 119.600 C 105.552 118.909,105.593 118.259,105.491 118.158 C 105.389 118.056,105.191 118.547,105.050 119.250 M40.856 119.600 C 40.856 119.930,41.011 120.560,41.200 121.000 C 41.417 121.504,41.544 121.578,41.544 121.200 C 41.544 120.870,41.389 120.240,41.200 119.800 C 40.983 119.296,40.856 119.222,40.856 119.600 M91.200 120.511 C 90.430 121.220,89.350 122.123,88.800 122.517 C 87.835 123.210,87.846 123.210,89.112 122.524 C 90.252 121.907,93.268 119.181,92.778 119.211 C 92.680 119.217,91.970 119.802,91.200 120.511 M55.000 121.600 C 55.859 122.480,56.652 123.200,56.762 123.200 C 56.872 123.200,56.259 122.480,55.400 121.600 C 54.541 120.720,53.748 120.000,53.638 120.000 C 53.528 120.000,54.141 120.720,55.000 121.600 M61.400 132.800 C 61.400 137.200,61.535 140.800,61.700 140.800 C 61.865 140.800,62.000 137.200,62.000 132.800 C 62.000 128.400,61.865 124.800,61.700 124.800 C 61.535 124.800,61.400 128.400,61.400 132.800 M79.552 125.309 C 79.720 125.478,80.564 125.449,81.429 125.243 L 83.000 124.869 81.124 124.935 C 80.092 124.971,79.385 125.139,79.552 125.309 M102.200 127.200 C 101.859 127.860,101.669 128.400,101.779 128.400 C 101.889 128.400,102.259 127.860,102.600 127.200 C 102.941 126.540,103.131 126.000,103.021 126.000 C 102.911 126.000,102.541 126.540,102.200 127.200 M44.000 128.135 C 44.000 128.832,46.452 131.914,48.665 133.999 L 51.000 136.199 48.552 133.599 C 47.206 132.170,45.631 130.283,45.052 129.407 C 44.473 128.531,44.000 127.959,44.000 128.135 M96.417 134.217 C 94.996 135.417,92.713 136.980,91.342 137.691 C 89.971 138.402,88.911 139.044,88.985 139.118 C 89.479 139.612,96.745 134.850,98.564 132.840 C 99.777 131.499,99.185 131.879,96.417 134.217 M81.200 141.200 C 80.396 141.457,80.357 141.523,81.000 141.532 C 81.440 141.538,82.160 141.389,82.600 141.200 C 83.619 140.762,82.568 140.762,81.200 141.200 M69.152 141.714 C 69.326 141.886,71.522 141.975,74.034 141.912 L 78.600 141.796 73.718 141.598 C 71.034 141.489,68.979 141.541,69.152 141.714 M54.876 149.940 C 54.368 150.083,55.864 150.200,58.200 150.200 C 60.536 150.200,62.032 150.083,61.524 149.940 C 61.016 149.797,59.520 149.680,58.200 149.680 C 56.880 149.680,55.384 149.797,54.876 149.940 M84.003 152.300 C 84.005 152.465,84.950 152.622,86.103 152.649 C 87.633 152.685,87.929 152.614,87.200 152.389 C 85.869 151.977,83.999 151.925,84.003 152.300 M96.400 156.708 C 97.390 157.594,98.277 158.245,98.371 158.155 C 98.548 157.986,97.857 157.391,95.800 155.942 C 95.140 155.478,95.410 155.822,96.400 156.708 M98.800 158.664 C 98.800 158.882,99.295 159.497,99.900 160.030 L 101.000 161.000 100.000 159.800 C 99.450 159.140,98.955 158.525,98.900 158.433 C 98.845 158.342,98.800 158.445,98.800 158.664 M40.256 165.684 C 40.121 166.188,40.031 167.230,40.055 168.000 C 40.089 169.069,40.175 168.880,40.418 167.202 C 40.753 164.892,40.672 164.133,40.256 165.684 M56.600 166.800 C 55.581 167.238,56.632 167.238,58.000 166.800 C 58.804 166.543,58.843 166.477,58.200 166.468 C 57.760 166.462,57.040 166.611,56.600 166.800 M61.400 166.800 C 61.840 166.989,62.470 167.144,62.800 167.144 C 63.178 167.144,63.104 167.017,62.600 166.800 C 62.160 166.611,61.530 166.456,61.200 166.456 C 60.822 166.456,60.896 166.583,61.400 166.800 M54.087 168.300 C 53.130 169.235,53.114 169.281,53.981 168.606 C 55.688 167.276,55.769 167.200,55.486 167.200 C 55.336 167.200,54.706 167.695,54.087 168.300 M63.800 167.452 C 64.020 167.645,64.920 168.432,65.799 169.201 L 67.398 170.600 66.199 169.266 C 65.540 168.532,64.640 167.745,64.200 167.517 C 63.760 167.289,63.580 167.260,63.800 167.452 M89.400 169.065 C 90.422 170.033,92.933 171.671,92.327 170.974 C 91.957 170.548,91.057 169.859,90.327 169.443 C 89.597 169.027,89.180 168.857,89.400 169.065 M40.040 172.633 C 40.062 173.715,40.222 175.050,40.397 175.600 C 40.581 176.181,40.625 175.427,40.501 173.800 C 40.251 170.504,39.983 169.827,40.040 172.633 M78.662 172.200 C 78.796 173.080,78.972 173.875,79.053 173.967 C 79.356 174.310,79.129 172.168,78.781 171.400 C 78.529 170.842,78.493 171.085,78.662 172.200 M104.856 171.200 C 104.856 171.530,105.011 172.160,105.200 172.600 C 105.417 173.104,105.544 173.178,105.544 172.800 C 105.544 172.470,105.389 171.840,105.200 171.400 C 104.983 170.896,104.856 170.822,104.856 171.200 M51.456 172.884 C 51.321 173.388,51.227 174.160,51.246 174.600 C 51.265 175.040,51.445 174.698,51.646 173.840 C 52.036 172.178,51.870 171.340,51.456 172.884 M68.856 174.800 C 68.856 175.130,69.011 175.760,69.200 176.200 C 69.417 176.704,69.544 176.778,69.544 176.400 C 69.544 176.070,69.389 175.440,69.200 175.000 C 68.983 174.496,68.856 174.422,68.856 174.800 M79.483 181.800 C 79.728 189.235,79.564 189.006,84.251 188.463 L 87.800 188.051 84.099 188.256 C 79.720 188.498,80.178 189.187,79.672 181.600 L 79.285 175.800 79.483 181.800 M94.528 178.400 C 94.528 179.830,94.601 180.415,94.689 179.700 C 94.778 178.985,94.778 177.815,94.689 177.100 C 94.601 176.385,94.528 176.970,94.528 178.400 M105.740 179.200 C 105.740 181.070,105.809 181.835,105.893 180.900 C 105.977 179.965,105.977 178.435,105.893 177.500 C 105.809 176.565,105.740 177.330,105.740 179.200 M51.228 177.633 C 51.244 178.165,51.419 178.960,51.619 179.400 C 51.871 179.958,51.907 179.715,51.738 178.600 C 51.455 176.743,51.187 176.236,51.228 177.633 M69.854 182.000 C 69.957 184.090,69.881 186.340,69.685 187.000 L 69.328 188.200 65.364 188.153 C 62.271 188.116,61.796 188.175,63.200 188.423 C 69.858 189.598,71.256 188.002,70.055 180.600 C 69.698 178.396,69.682 178.511,69.854 182.000 M43.000 183.600 C 43.341 184.260,43.711 184.800,43.821 184.800 C 43.931 184.800,43.741 184.260,43.400 183.600 C 43.059 182.940,42.689 182.400,42.579 182.400 C 42.469 182.400,42.659 182.940,43.000 183.600 M54.600 184.755 C 55.826 186.102,57.814 187.295,59.600 187.755 C 60.150 187.897,59.691 187.586,58.580 187.064 C 57.469 186.543,55.849 185.513,54.980 184.776 L 53.400 183.436 54.600 184.755 M92.461 185.263 C 91.944 185.900,90.864 186.768,90.061 187.193 C 89.257 187.617,88.744 187.973,88.920 187.982 C 89.932 188.038,94.084 184.712,93.571 184.257 C 93.477 184.174,92.977 184.626,92.461 185.263 M105.000 186.800 C 104.848 187.491,104.814 188.147,104.924 188.257 C 105.034 188.367,105.248 187.891,105.400 187.200 C 105.552 186.509,105.586 185.853,105.476 185.743 C 105.366 185.633,105.152 186.109,105.000 186.800 M45.800 189.200 C 44.730 189.472,44.708 189.505,45.600 189.505 C 46.150 189.505,47.140 189.368,47.800 189.200 C 48.870 188.928,48.892 188.895,48.000 188.895 C 47.450 188.895,46.460 189.032,45.800 189.200 M99.781 198.437 C 98.912 199.338,97.300 200.596,96.200 201.234 C 95.100 201.871,94.390 202.394,94.622 202.396 C 95.515 202.404,99.067 199.799,100.770 197.889 C 102.269 196.205,101.552 196.603,99.781 198.437 M89.200 203.600 C 88.408 203.854,88.367 203.920,89.000 203.920 C 89.440 203.920,90.250 203.776,90.800 203.600 C 91.592 203.346,91.633 203.280,91.000 203.280 C 90.560 203.280,89.750 203.424,89.200 203.600 M52.800 204.375 C 50.930 204.499,56.870 204.544,66.000 204.477 C 75.130 204.409,82.870 204.294,83.200 204.223 C 84.235 203.999,56.375 204.137,52.800 204.375 M43.200 205.200 C 41.551 205.456,41.517 205.483,42.800 205.517 C 43.570 205.537,44.920 205.405,45.800 205.223 C 47.866 204.796,45.912 204.778,43.200 205.200 M59.700 215.052 C 60.521 215.294,60.799 230.536,59.990 230.937 C 59.764 231.049,59.809 231.094,60.090 231.037 C 61.083 230.835,60.798 215.031,59.800 214.928 C 59.178 214.864,59.156 214.892,59.700 215.052 M85.907 217.490 C 86.626 217.579,87.706 217.577,88.307 217.486 C 88.908 217.395,88.320 217.322,87.000 217.324 C 85.680 217.326,85.188 217.401,85.907 217.490 M47.200 221.000 C 46.228 221.990,45.523 222.800,45.633 222.800 C 45.743 222.800,46.628 221.990,47.600 221.000 C 48.572 220.010,49.277 219.200,49.167 219.200 C 49.057 219.200,48.172 220.010,47.200 221.000 M75.896 221.300 C 74.719 222.455,74.485 222.752,75.378 221.959 C 76.270 221.167,77.445 220.222,77.989 219.859 C 78.533 219.497,78.766 219.200,78.508 219.200 C 78.249 219.200,77.074 220.145,75.896 221.300 M99.000 222.400 C 99.859 223.280,100.652 224.000,100.762 224.000 C 100.872 224.000,100.259 223.280,99.400 222.400 C 98.541 221.520,97.748 220.800,97.638 220.800 C 97.528 220.800,98.141 221.520,99.000 222.400 M41.049 232.215 C 40.912 232.573,40.815 233.166,40.834 233.533 C 40.853 233.900,41.027 233.669,41.221 233.020 C 41.598 231.758,41.465 231.133,41.049 232.215 M84.662 234.636 C 83.824 235.205,83.252 235.785,83.391 235.924 C 83.530 236.063,83.769 235.980,83.922 235.739 C 84.075 235.498,84.830 234.919,85.600 234.452 C 86.370 233.985,86.817 233.602,86.593 233.601 C 86.369 233.601,85.500 234.066,84.662 234.636 M104.868 234.000 C 104.888 235.039,105.518 236.746,105.532 235.800 C 105.538 235.360,105.389 234.640,105.200 234.200 C 104.989 233.710,104.861 233.632,104.868 234.000 M40.256 236.484 C 40.121 236.988,40.035 238.390,40.064 239.600 C 40.115 241.685,40.132 241.643,40.403 238.800 C 40.704 235.637,40.662 234.971,40.256 236.484 M50.650 240.050 C 50.342 241.588,50.390 244.680,50.740 245.924 C 50.883 246.432,51.000 245.037,51.000 242.824 C 51.000 238.325,50.998 238.310,50.650 240.050 M105.742 242.200 C 105.741 244.180,105.808 245.040,105.892 244.112 C 105.976 243.184,105.977 241.564,105.895 240.512 C 105.812 239.460,105.743 240.220,105.742 242.200 M95.301 241.000 C 95.305 241.880,95.387 242.193,95.483 241.695 C 95.579 241.198,95.575 240.478,95.475 240.095 C 95.375 239.713,95.296 240.120,95.301 241.000 M40.028 245.633 C 40.044 246.825,40.202 248.160,40.380 248.600 C 40.565 249.058,40.616 248.202,40.499 246.600 C 40.250 243.200,39.990 242.665,40.028 245.633 M94.832 244.044 C 94.814 244.398,94.328 245.384,93.752 246.233 C 93.175 247.083,93.007 247.526,93.378 247.218 C 94.288 246.463,95.294 244.457,95.056 243.873 C 94.945 243.601,94.850 243.674,94.832 244.044 M51.208 247.400 C 51.189 248.872,54.433 251.995,55.985 251.999 C 56.306 251.999,55.767 251.595,54.786 251.100 C 53.612 250.507,52.698 249.654,52.108 248.600 C 51.616 247.720,51.211 247.180,51.208 247.400 M105.029 248.629 C 104.881 249.215,104.838 249.772,104.932 249.866 C 105.027 249.960,105.224 249.558,105.371 248.971 C 105.519 248.385,105.562 247.828,105.468 247.734 C 105.373 247.640,105.176 248.042,105.029 248.629 M61.800 250.250 C 61.081 250.862,60.934 251.105,61.433 250.857 C 62.166 250.493,63.541 249.176,63.149 249.214 C 63.067 249.222,62.460 249.688,61.800 250.250 M40.806 251.433 C 40.809 251.855,40.995 252.470,41.218 252.800 C 41.515 253.238,41.552 253.076,41.356 252.200 C 41.027 250.729,40.798 250.410,40.806 251.433 M100.135 259.449 C 99.527 260.247,97.780 261.777,96.252 262.849 C 93.198 264.994,92.936 265.553,95.928 263.541 C 98.203 262.011,99.811 260.564,100.864 259.100 C 102.035 257.470,101.420 257.765,100.135 259.449 M70.472 263.615 C 69.302 264.707,68.499 265.600,68.687 265.600 C 68.876 265.600,69.917 264.700,71.000 263.600 C 73.523 261.038,73.226 261.047,70.472 263.615 M46.800 263.400 C 47.546 264.170,48.247 264.800,48.357 264.800 C 48.467 264.800,47.946 264.170,47.200 263.400 C 46.454 262.630,45.753 262.000,45.643 262.000 C 45.533 262.000,46.054 262.630,46.800 263.400 M66.400 266.400 C 65.630 266.822,65.144 267.174,65.320 267.183 C 65.744 267.205,68.000 266.032,68.000 265.790 C 68.000 265.528,67.977 265.537,66.400 266.400 M89.600 266.000 C 88.776 266.264,88.741 266.326,89.400 266.354 C 89.840 266.373,90.470 266.213,90.800 266.000 C 91.501 265.547,91.014 265.547,89.600 266.000 M53.800 267.600 C 54.240 267.789,54.870 267.944,55.200 267.944 C 55.578 267.944,55.504 267.817,55.000 267.600 C 54.560 267.411,53.930 267.256,53.600 267.256 C 53.222 267.256,53.296 267.383,53.800 267.600 M62.800 267.600 C 61.976 267.864,61.941 267.926,62.600 267.954 C 63.040 267.973,63.670 267.813,64.000 267.600 C 64.701 267.147,64.214 267.147,62.800 267.600 M41.632 279.098 C 41.650 279.516,41.745 279.598,41.865 279.300 C 42.024 278.906,48.633 278.800,73.025 278.800 L 103.983 278.800 104.105 286.700 L 104.227 294.600 104.213 286.600 L 104.200 278.600 72.900 278.498 C 43.267 278.401,41.602 278.433,41.632 279.098 M41.919 294.471 C 42.238 294.779,77.242 295.108,76.934 294.800 C 76.824 294.690,68.838 294.510,59.186 294.400 C 49.535 294.290,41.765 294.322,41.919 294.471 M93.600 294.751 C 93.600 294.944,93.915 295.349,94.300 295.651 C 94.932 296.146,94.947 296.133,94.461 295.513 C 93.960 294.872,94.260 294.817,98.861 294.699 L 103.800 294.573 98.700 294.486 C 95.895 294.439,93.600 294.558,93.600 294.751 M79.000 295.600 C 79.440 295.789,80.160 295.938,80.600 295.932 C 81.243 295.923,81.204 295.857,80.400 295.600 C 79.032 295.162,77.981 295.162,79.000 295.600 M98.000 297.779 C 98.000 297.889,98.540 298.259,99.200 298.600 C 99.860 298.941,100.400 299.131,100.400 299.021 C 100.400 298.911,99.860 298.541,99.200 298.200 C 98.540 297.859,98.000 297.669,98.000 297.779 M88.000 299.800 C 88.746 300.570,89.447 301.200,89.557 301.200 C 89.667 301.200,89.146 300.570,88.400 299.800 C 87.654 299.030,86.953 298.400,86.843 298.400 C 86.733 298.400,87.254 299.030,88.000 299.800 M102.252 301.000 C 103.088 302.100,103.823 303.075,103.886 303.167 C 103.949 303.258,104.000 303.146,104.000 302.918 C 104.000 302.690,103.265 301.715,102.366 300.751 L 100.732 299.000 102.252 301.000 M92.285 311.000 C 92.384 312.760,92.537 314.430,92.624 314.710 C 92.852 315.444,105.288 315.231,105.437 314.490 C 105.494 314.210,105.449 314.165,105.337 314.390 C 105.211 314.643,102.779 314.800,98.967 314.800 L 92.800 314.800 92.760 312.300 C 92.738 310.925,92.582 309.350,92.412 308.800 C 92.239 308.237,92.183 309.199,92.285 311.000 M105.701 311.000 C 105.705 311.880,105.787 312.193,105.883 311.695 C 105.979 311.198,105.975 310.478,105.875 310.095 C 105.775 309.713,105.696 310.120,105.701 311.000 " stroke="none" fill="#b4ec9c" fill-rule="evenodd">
</path>
<path id="path4" d="M47.600 320.655 C 38.706 322.360,37.158 335.284,45.385 339.151 C 49.939 341.291,56.491 339.348,58.567 335.241 C 62.564 327.331,56.292 318.988,47.600 320.655 " stroke="none" fill="#737672" fill-rule="evenodd">
</path>
</g>
</svg>